<svg id="SvgjsSvg1006" width="894.0000305175781" height="862.8958435058594" xmlns="http://www.w3.org/2000/svg" version="1.1" xmlns:xlink="http://www.w3.org/1999/xlink" xmlns:svgjs="http://svgjs.com/svgjs"><defs id="SvgjsDefs1007"></defs><g id="SvgjsG1008" transform="translate(59.4047437395368,25.00295584542414)"><path id="SvgjsPath1009" d="M 0 388.40477643694203C 0 -129.46825881231402 799.8571384974889 -129.46825881231402 799.8571384974889 388.40477643694203C 799.8571384974889 906.2778116861981 0 906.2778116861981 0 388.40477643694203Z" stroke="rgba(50,50,50,1)" stroke-width="2" fill-opacity="1" fill="#ffffff"></path><g id="SvgjsG1010"><text id="SvgjsText1011" font-family="微软雅黑" text-anchor="middle" font-size="13px" width="780px" fill="#323232" font-weight="400" align="middle" lineHeight="125%" anchor="middle" family="微软雅黑" size="13px" weight="400" font-style="" opacity="1" y="378.77977643694203" transform="rotate(0)"></text></g></g><g id="SvgjsG1012"><path id="SvgjsPath1013" d="M458.7678849951933 25.827753508267847C 345.9285430908203 182.4791259765625 427.9285430908203 538.4791564941406 747.9285430908203 692.4791488647461" stroke-dasharray="8,5" stroke="#323232" stroke-width="2" fill="none"></path></g><g id="SvgjsG1014"><path id="SvgjsPath1015" d="M458.8942913255447 25.90143232238279C 366.9999694824219 213.81247901916504 64.99996948242188 837.8125 458.33558253299293 801.879843246782" stroke-dasharray="8,5" stroke="#323232" stroke-width="2" fill="none"></path></g><g id="SvgjsG1016"><path id="SvgjsPath1017" d="M458.3392796215965 801.7034322969362C 52.999969482421875 769.8125 522.9999694824219 541.8125 553.9285430908203 548.4791564941406" stroke-dasharray="8,5" stroke="#323232" stroke-width="2" fill="none"></path></g><g id="SvgjsG1018" transform="translate(124.33331298828128,474.14581298828125)"><path id="SvgjsPath1019" d="M 0 4Q 0 0 4 0L 128 0Q 132 0 132 4L 132 56Q 132 60 128 60L 4 60Q 0 60 0 56Z" stroke="rgba(50,50,50,1)" stroke-width="2" fill-opacity="1" fill="#ffffff"></path><g id="SvgjsG1020"><text id="SvgjsText1021" font-family="微软雅黑" text-anchor="middle" font-size="18px" width="112px" fill="#323232" font-weight="400" align="middle" lineHeight="125%" anchor="middle" family="微软雅黑" size="18px" weight="400" font-style="" opacity="1" y="5.25" transform="rotate(0)"><tspan id="SvgjsTspan1022" dy="22" x="66"><tspan id="SvgjsTspan1023" style="text-decoration:;">官方活动上下</tspan></tspan><tspan id="SvgjsTspan1024" dy="22" x="66"><tspan id="SvgjsTspan1025" style="text-decoration:;">文</tspan></tspan></text></g></g><g id="SvgjsG1026" transform="translate(266.33331298828125,87.14581298828125)"><path id="SvgjsPath1027" d="M 0 4Q 0 0 4 0L 128 0Q 132 0 132 4L 132 56Q 132 60 128 60L 4 60Q 0 60 0 56Z" stroke="rgba(50,50,50,1)" stroke-width="2" fill-opacity="1" fill="#ffffff"></path><g id="SvgjsG1028"><text id="SvgjsText1029" font-family="微软雅黑" text-anchor="middle" font-size="18px" width="112px" fill="#323232" font-weight="400" align="middle" lineHeight="125%" anchor="middle" family="微软雅黑" size="18px" weight="400" font-style="" opacity="1" y="5.25" transform="rotate(0)"><tspan id="SvgjsTspan1030" dy="22" x="66"><tspan id="SvgjsTspan1031" style="text-decoration:;">平台轮播图上</tspan></tspan><tspan id="SvgjsTspan1032" dy="22" x="66"><tspan id="SvgjsTspan1033" style="text-decoration:;">下文</tspan></tspan></text></g></g><g id="SvgjsG1034" transform="translate(170.99996948242188,271.14581298828125)"><path id="SvgjsPath1035" d="M 0 4Q 0 0 4 0L 128 0Q 132 0 132 4L 132 56Q 132 60 128 60L 4 60Q 0 60 0 56Z" stroke="rgba(50,50,50,1)" stroke-width="2" fill-opacity="1" fill="#ffffff"></path><g id="SvgjsG1036"><text id="SvgjsText1037" font-family="微软雅黑" text-anchor="middle" font-size="18px" width="112px" fill="#323232" font-weight="400" align="middle" lineHeight="125%" anchor="middle" family="微软雅黑" size="18px" weight="400" font-style="" opacity="1" y="5.25" transform="rotate(0)"><tspan id="SvgjsTspan1038" dy="22" x="66"><tspan id="SvgjsTspan1039" style="text-decoration:;">积分中心上下</tspan></tspan><tspan id="SvgjsTspan1040" dy="22" x="66"><tspan id="SvgjsTspan1041" style="text-decoration:;">文</tspan></tspan></text></g></g><g id="SvgjsG1042" transform="translate(124.33331298828128,387.52081298828125)"><path id="SvgjsPath1043" d="M 0 4Q 0 0 4 0L 128 0Q 132 0 132 4L 132 56Q 132 60 128 60L 4 60Q 0 60 0 56Z" stroke="rgba(50,50,50,1)" stroke-width="2" fill-opacity="1" fill="#ffffff"></path><g id="SvgjsG1044"><text id="SvgjsText1045" font-family="微软雅黑" text-anchor="middle" font-size="18px" width="112px" fill="#323232" font-weight="400" align="middle" lineHeight="125%" anchor="middle" family="微软雅黑" size="18px" weight="400" font-style="" opacity="1" y="5.25" transform="rotate(0)"><tspan id="SvgjsTspan1046" dy="22" x="66"><tspan id="SvgjsTspan1047" style="text-decoration:;">优惠券中心上</tspan></tspan><tspan id="SvgjsTspan1048" dy="22" x="66"><tspan id="SvgjsTspan1049" style="text-decoration:;">下文</tspan></tspan></text></g></g><g id="SvgjsG1050" transform="translate(160.99996948242193,179.14581298828114)"><path id="SvgjsPath1051" d="M 0 4Q 0 0 4 0L 128 0Q 132 0 132 4L 132 56Q 132 60 128 60L 4 60Q 0 60 0 56Z" stroke="rgba(50,50,50,1)" stroke-width="2" fill-opacity="1" fill="#ffffff"></path><g id="SvgjsG1052"><text id="SvgjsText1053" font-family="微软雅黑" text-anchor="middle" font-size="18px" width="112px" fill="#323232" font-weight="400" align="middle" lineHeight="125%" anchor="middle" family="微软雅黑" size="18px" weight="400" font-style="" opacity="1" y="16.25" transform="rotate(0)"><tspan id="SvgjsTspan1054" dy="22" x="66"><tspan id="SvgjsTspan1055" style="text-decoration:;">客服</tspan><tspan id="SvgjsTspan1056" style="text-decoration:;font-size: inherit;">上下文</tspan></tspan></text></g></g><g id="SvgjsG1057" transform="translate(124.33331298828128,559.1458129882812)"><path id="SvgjsPath1058" d="M 0 4Q 0 0 4 0L 128 0Q 132 0 132 4L 132 56Q 132 60 128 60L 4 60Q 0 60 0 56Z" stroke="rgba(50,50,50,1)" stroke-width="2" fill-opacity="1" fill="#ffffff"></path><g id="SvgjsG1059"><text id="SvgjsText1060" font-family="微软雅黑" text-anchor="middle" font-size="18px" width="112px" fill="#323232" font-weight="400" align="middle" lineHeight="125%" anchor="middle" family="微软雅黑" size="18px" weight="400" font-style="" opacity="1" y="16.25" transform="rotate(0)"><tspan id="SvgjsTspan1061" dy="22" x="66"><tspan id="SvgjsTspan1062" style="text-decoration:;">反馈上下文</tspan></tspan></text></g></g><g id="SvgjsG1063" transform="translate(474.33331298828125,97.14581298828125)"><path id="SvgjsPath1064" d="M 0 4Q 0 0 4 0L 150.66665649414062 0Q 154.66665649414062 0 154.66665649414062 4L 154.66665649414062 46Q 154.66665649414062 50 150.66665649414062 50L 4 50Q 0 50 0 46Z" stroke="rgba(50,50,50,1)" stroke-width="2" fill-opacity="1" fill="#ffffff"></path><g id="SvgjsG1065"><text id="SvgjsText1066" font-family="微软雅黑" text-anchor="middle" font-size="18px" width="135px" fill="#323232" font-weight="400" align="middle" lineHeight="125%" anchor="middle" family="微软雅黑" size="18px" weight="400" font-style="" opacity="1" y="0.25" transform="rotate(0)"><tspan id="SvgjsTspan1067" dy="22" x="77.5"><tspan id="SvgjsTspan1068" style="text-decoration:;">用户基本信息上</tspan></tspan><tspan id="SvgjsTspan1069" dy="22" x="77.5"><tspan id="SvgjsTspan1070" style="text-decoration:;">下文</tspan></tspan></text></g></g><g id="SvgjsG1071" transform="translate(436.33331298828125,171.14581298828125)"><path id="SvgjsPath1072" d="M 0 4Q 0 0 4 0L 128 0Q 132 0 132 4L 132 56Q 132 60 128 60L 4 60Q 0 60 0 56Z" stroke="rgba(50,50,50,1)" stroke-width="2" fill-opacity="1" fill="#ffffff"></path><g id="SvgjsG1073"><text id="SvgjsText1074" font-family="微软雅黑" text-anchor="middle" font-size="18px" width="112px" fill="#323232" font-weight="400" align="middle" lineHeight="125%" anchor="middle" family="微软雅黑" size="18px" weight="400" font-style="" opacity="1" y="5.25" transform="rotate(0)"><tspan id="SvgjsTspan1075" dy="22" x="66"><tspan id="SvgjsTspan1076" style="text-decoration:;">用户评论上下</tspan></tspan><tspan id="SvgjsTspan1077" dy="22" x="66"><tspan id="SvgjsTspan1078" style="text-decoration:;">文</tspan></tspan></text></g></g><g id="SvgjsG1079" transform="translate(474.33331298828125,271.14581298828125)"><path id="SvgjsPath1080" d="M 0 4Q 0 0 4 0L 128 0Q 132 0 132 4L 132 56Q 132 60 128 60L 4 60Q 0 60 0 56Z" stroke="rgba(50,50,50,1)" stroke-width="2" fill-opacity="1" fill="#ffffff"></path><g id="SvgjsG1081"><text id="SvgjsText1082" font-family="微软雅黑" text-anchor="middle" font-size="18px" width="112px" fill="#323232" font-weight="400" align="middle" lineHeight="125%" anchor="middle" family="微软雅黑" size="18px" weight="400" font-style="" opacity="1" y="5.25" transform="rotate(0)"><tspan id="SvgjsTspan1083" dy="22" x="66"><tspan id="SvgjsTspan1084" style="text-decoration:;">用户优惠券上</tspan></tspan><tspan id="SvgjsTspan1085" dy="22" x="66"><tspan id="SvgjsTspan1086" style="text-decoration:;">下文</tspan></tspan></text></g></g><g id="SvgjsG1087" transform="translate(618.3333129882812,179.14581298828125)"><path id="SvgjsPath1088" d="M 0 4Q 0 0 4 0L 128 0Q 132 0 132 4L 132 56Q 132 60 128 60L 4 60Q 0 60 0 56Z" stroke="rgba(50,50,50,1)" stroke-width="2" fill-opacity="1" fill="#ffffff"></path><g id="SvgjsG1089"><text id="SvgjsText1090" font-family="微软雅黑" text-anchor="middle" font-size="18px" width="112px" fill="#323232" font-weight="400" align="middle" lineHeight="125%" anchor="middle" family="微软雅黑" size="18px" weight="400" font-style="" opacity="1" y="5.25" transform="rotate(0)"><tspan id="SvgjsTspan1091" dy="22" x="66"><tspan id="SvgjsTspan1092" style="text-decoration:;">用户收藏夹上</tspan></tspan><tspan id="SvgjsTspan1093" dy="22" x="66"><tspan id="SvgjsTspan1094" style="text-decoration:;">下文</tspan></tspan></text></g></g><g id="SvgjsG1095" transform="translate(646.9999694824219,271.14581298828125)"><path id="SvgjsPath1096" d="M 0 4Q 0 0 4 0L 128 0Q 132 0 132 4L 132 56Q 132 60 128 60L 4 60Q 0 60 0 56Z" stroke="rgba(50,50,50,1)" stroke-width="2" fill-opacity="1" fill="#ffffff"></path><g id="SvgjsG1097"><text id="SvgjsText1098" font-family="微软雅黑" text-anchor="middle" font-size="18px" width="112px" fill="#323232" font-weight="400" align="middle" lineHeight="125%" anchor="middle" family="微软雅黑" size="18px" weight="400" font-style="" opacity="1" y="5.25" transform="rotate(0)"><tspan id="SvgjsTspan1099" dy="22" x="66"><tspan id="SvgjsTspan1100" style="text-decoration:;">用户足迹上下</tspan></tspan><tspan id="SvgjsTspan1101" dy="22" x="66"><tspan id="SvgjsTspan1102" style="text-decoration:;">文</tspan></tspan></text></g></g><g id="SvgjsG1103" transform="translate(502.66664123535156,344.27081298828125)"><path id="SvgjsPath1104" d="M 0 4Q 0 0 4 0L 128 0Q 132 0 132 4L 132 56Q 132 60 128 60L 4 60Q 0 60 0 56Z" stroke="rgba(50,50,50,1)" stroke-width="2" fill-opacity="1" fill="#ffffff"></path><g id="SvgjsG1105"><text id="SvgjsText1106" font-family="微软雅黑" text-anchor="middle" font-size="13px" width="112px" fill="#323232" font-weight="400" align="middle" lineHeight="125%" anchor="middle" family="微软雅黑" size="13px" weight="400" font-style="" opacity="1" y="20.375" transform="rotate(0)"><tspan id="SvgjsTspan1107" dy="16" x="66"><tspan id="SvgjsTspan1108" style="text-decoration:;">用户通知上下文</tspan></tspan></text></g></g><g id="SvgjsG1109" transform="translate(666.9999694824219,404.27081298828125)"><path id="SvgjsPath1110" d="M 0 4Q 0 0 4 0L 128 0Q 132 0 132 4L 132 56Q 132 60 128 60L 4 60Q 0 60 0 56Z" stroke="rgba(50,50,50,1)" stroke-width="2" fill-opacity="1" fill="#ffffff"></path><g id="SvgjsG1111"><text id="SvgjsText1112" font-family="微软雅黑" text-anchor="middle" font-size="18px" width="112px" fill="#323232" font-weight="400" align="middle" lineHeight="125%" anchor="middle" family="微软雅黑" size="18px" weight="400" font-style="" opacity="1" y="16.25" transform="rotate(0)"><tspan id="SvgjsTspan1113" dy="22" x="66"><tspan id="SvgjsTspan1114" style="text-decoration:;">用户订单</tspan></tspan></text></g></g><g id="SvgjsG1115" transform="translate(584.9999694824219,487.14581298828125)"><path id="SvgjsPath1116" d="M 0 4Q 0 0 4 0L 128 0Q 132 0 132 4L 132 56Q 132 60 128 60L 4 60Q 0 60 0 56Z" stroke="rgba(50,50,50,1)" stroke-width="2" fill-opacity="1" fill="#ffffff"></path><g id="SvgjsG1117"><text id="SvgjsText1118" font-family="微软雅黑" text-anchor="middle" font-size="18px" width="112px" fill="#323232" font-weight="400" align="middle" lineHeight="125%" anchor="middle" family="微软雅黑" size="18px" weight="400" font-style="" opacity="1" y="5.25" transform="rotate(0)"><tspan id="SvgjsTspan1119" dy="22" x="66"><tspan id="SvgjsTspan1120" style="text-decoration:;">用户购物车上</tspan></tspan><tspan id="SvgjsTspan1121" dy="22" x="66"><tspan id="SvgjsTspan1122" style="text-decoration:;">下文</tspan></tspan></text></g></g><g id="SvgjsG1123" transform="translate(646.9999694824219,559.1458129882812)"><path id="SvgjsPath1124" d="M 0 4Q 0 0 4 0L 128 0Q 132 0 132 4L 132 56Q 132 60 128 60L 4 60Q 0 60 0 56Z" stroke="rgba(50,50,50,1)" stroke-width="2" fill-opacity="1" fill="#ffffff"></path><g id="SvgjsG1125"><text id="SvgjsText1126" font-family="微软雅黑" text-anchor="middle" font-size="18px" width="112px" fill="#323232" font-weight="400" align="middle" lineHeight="125%" anchor="middle" family="微软雅黑" size="18px" weight="400" font-style="" opacity="1" y="5.25" transform="rotate(0)"><tspan id="SvgjsTspan1127" dy="22" x="66"><tspan id="SvgjsTspan1128" style="text-decoration:;">用户关系上下</tspan></tspan><tspan id="SvgjsTspan1129" dy="22" x="66"><tspan id="SvgjsTspan1130" style="text-decoration:;">文</tspan></tspan></text></g></g><g id="SvgjsG1131" transform="translate(324.33331298828125,700.1458129882812)"><path id="SvgjsPath1132" d="M 0 4Q 0 0 4 0L 128 0Q 132 0 132 4L 132 56Q 132 60 128 60L 4 60Q 0 60 0 56Z" stroke="rgba(50,50,50,1)" stroke-width="2" fill-opacity="1" fill="#ffffff"></path><g id="SvgjsG1133"><text id="SvgjsText1134" font-family="微软雅黑" text-anchor="middle" font-size="18px" width="112px" fill="#323232" font-weight="400" align="middle" lineHeight="125%" anchor="middle" family="微软雅黑" size="18px" weight="400" font-style="" opacity="1" y="5.25" transform="rotate(0)"><tspan id="SvgjsTspan1135" dy="22" x="66"><tspan id="SvgjsTspan1136" style="text-decoration:;">商家基本信息</tspan></tspan><tspan id="SvgjsTspan1137" dy="22" x="66"><tspan id="SvgjsTspan1138" style="text-decoration:;">上下文</tspan></tspan></text></g></g><g id="SvgjsG1139" transform="translate(502.66664123535156,688.1458129882812)"><path id="SvgjsPath1140" d="M 0 4Q 0 0 4 0L 128 0Q 132 0 132 4L 132 56Q 132 60 128 60L 4 60Q 0 60 0 56Z" stroke="rgba(50,50,50,1)" stroke-width="2" fill-opacity="1" fill="#ffffff"></path><g id="SvgjsG1141"><text id="SvgjsText1142" font-family="微软雅黑" text-anchor="middle" font-size="18px" width="112px" fill="#323232" font-weight="400" align="middle" lineHeight="125%" anchor="middle" family="微软雅黑" size="18px" weight="400" font-style="" opacity="1" y="16.25" transform="rotate(0)"><tspan id="SvgjsTspan1143" dy="22" x="66"><tspan id="SvgjsTspan1144" style="text-decoration:;">商品上下文</tspan></tspan></text></g></g><g id="SvgjsG1145" transform="translate(398.33331298828125,619.1458129882812)"><path id="SvgjsPath1146" d="M 0 4Q 0 0 4 0L 128 0Q 132 0 132 4L 132 56Q 132 60 128 60L 4 60Q 0 60 0 56Z" stroke="rgba(50,50,50,1)" stroke-width="2" fill-opacity="1" fill="#ffffff"></path><g id="SvgjsG1147"><text id="SvgjsText1148" font-family="微软雅黑" text-anchor="middle" font-size="18px" width="112px" fill="#323232" font-weight="400" align="middle" lineHeight="125%" anchor="middle" family="微软雅黑" size="18px" weight="400" font-style="" opacity="1" y="16.25" transform="rotate(0)"><tspan id="SvgjsTspan1149" dy="22" x="66"><tspan id="SvgjsTspan1150" style="text-decoration:;">订单上下文</tspan></tspan></text></g></g><g id="SvgjsG1151" transform="translate(304.33331298828125,534.1458129882812)"><path id="SvgjsPath1152" d="M 0 4Q 0 0 4 0L 136 0Q 140 0 140 4L 140 49Q 140 53 136 53L 4 53Q 0 53 0 49Z" stroke="rgba(50,50,50,1)" stroke-width="2" fill-opacity="1" fill="#ffffff"></path><g id="SvgjsG1153"><text id="SvgjsText1154" font-family="微软雅黑" text-anchor="middle" font-size="18px" width="120px" fill="#323232" font-weight="400" align="middle" lineHeight="125%" anchor="middle" family="微软雅黑" size="18px" weight="400" font-style="" opacity="1" y="1.75" transform="rotate(0)"><tspan id="SvgjsTspan1155" dy="22" x="70"><tspan id="SvgjsTspan1156" style="text-decoration:;">骑手基本信息</tspan></tspan><tspan id="SvgjsTspan1157" dy="22" x="70"><tspan id="SvgjsTspan1158" style="text-decoration:;">上下文</tspan></tspan></text></g></g><g id="SvgjsG1159" transform="translate(342.33331298828125,389.89581298828125)"><path id="SvgjsPath1160" d="M 0 4Q 0 0 4 0L 90 0Q 94 0 94 4L 94 51.25Q 94 55.25 90 55.25L 4 55.25Q 0 55.25 0 51.25Z" stroke="rgba(50,50,50,1)" stroke-width="2" fill-opacity="1" fill="#ffffff"></path><g id="SvgjsG1161"><text id="SvgjsText1162" font-family="微软雅黑" text-anchor="middle" font-size="18px" width="74px" fill="#323232" font-weight="400" align="middle" lineHeight="125%" anchor="middle" family="微软雅黑" size="18px" weight="400" font-style="" opacity="1" y="2.875" transform="rotate(0)"><tspan id="SvgjsTspan1163" dy="22" x="47"><tspan id="SvgjsTspan1164" style="text-decoration:;">订单上下</tspan></tspan><tspan id="SvgjsTspan1165" dy="22" x="47"><tspan id="SvgjsTspan1166" style="text-decoration:;">文</tspan></tspan></text></g></g><g id="SvgjsG1167" transform="translate(600.9999694824219,331.14581298828125)"><path id="SvgjsPath1168" d="M 0 0L 268 0L 268 67.29168701171875L 0 67.29168701171875Z" stroke="none" fill="none"></path><g id="SvgjsG1169"><text id="SvgjsText1170" font-family="微软雅黑" text-anchor="middle" font-size="18px" width="268px" fill="#323232" font-weight="700" align="middle" lineHeight="125%" anchor="middle" family="微软雅黑" size="18px" weight="700" font-style="" opacity="1" y="19.895843505859375" transform="rotate(0)"><tspan id="SvgjsTspan1171" dy="22" x="134"><tspan id="SvgjsTspan1172" style="text-decoration:;">用户子域</tspan></tspan></text></g></g><g id="SvgjsG1173" transform="translate(24.999969482421903,322.6041259765625)"><path id="SvgjsPath1174" d="M 0 0L 268 0L 268 67.29168701171875L 0 67.29168701171875Z" stroke="none" fill="none"></path><g id="SvgjsG1175"><text id="SvgjsText1176" font-family="微软雅黑" text-anchor="middle" font-size="24px" width="268px" fill="#323232" font-weight="700" align="middle" lineHeight="125%" anchor="middle" family="微软雅黑" size="24px" weight="700" font-style="" opacity="1" y="13.645843505859375" transform="rotate(0)"><tspan id="SvgjsTspan1177" dy="30" x="134"><tspan id="SvgjsTspan1178" style="text-decoration:;">平台子域</tspan></tspan></text></g></g><g id="SvgjsG1179" transform="translate(256.33331298828125,451.3541259765625)"><path id="SvgjsPath1180" d="M 0 0L 268 0L 268 67.29168701171875L 0 67.29168701171875Z" stroke="none" fill="none"></path><g id="SvgjsG1181"><text id="SvgjsText1182" font-family="微软雅黑" text-anchor="middle" font-size="24px" width="268px" fill="#323232" font-weight="700" align="middle" lineHeight="125%" anchor="middle" family="微软雅黑" size="24px" weight="700" font-style="" opacity="1" y="13.645843505859375" transform="rotate(0)"><tspan id="SvgjsTspan1183" dy="30" x="134"><tspan id="SvgjsTspan1184" style="text-decoration:;">骑手子域</tspan></tspan></text></g></g><g id="SvgjsG1185" transform="translate(324.9999694824219,738.8541259765625)"><path id="SvgjsPath1186" d="M 0 0L 268 0L 268 67.29168701171875L 0 67.29168701171875Z" stroke="none" fill="none"></path><g id="SvgjsG1187"><text id="SvgjsText1188" font-family="微软雅黑" text-anchor="middle" font-size="24px" width="268px" fill="#323232" font-weight="700" align="middle" lineHeight="125%" anchor="middle" family="微软雅黑" size="24px" weight="700" font-style="" opacity="1" y="13.645843505859375" transform="rotate(0)"><tspan id="SvgjsTspan1189" dy="30" x="134"><tspan id="SvgjsTspan1190" style="text-decoration:;">商家子域</tspan></tspan></text></g></g></svg>