<svg id="SvgjsSvg1006" width="1528.8125" height="719.65625" xmlns="http://www.w3.org/2000/svg" version="1.1" xmlns:xlink="http://www.w3.org/1999/xlink" xmlns:svgjs="http://svgjs.com/svgjs"><defs id="SvgjsDefs1007"><pattern id="SvgjsPattern1120" x="0" y="0" width="70" height="56.666666666666686" patternUnits="userSpaceOnUse"><image id="SvgjsImage1121" xlink:href="https://iconsapi.com/5ee2648de4b0b788a932f64b.svg" width="70" height="56.666666666666686" preserveAspectRatio="none" crossOrigin="anonymous" x="0" y="0"></image></pattern><marker id="SvgjsMarker1160" markerWidth="14" markerHeight="10" refX="10" refY="5" viewBox="0 0 14 10" orient="auto" markerUnits="userSpaceOnUse" stroke-dasharray="0,0"><path id="SvgjsPath1161" d="M0,0 L14,5 L0,10 L0,0" fill="#323232" stroke="#323232" stroke-width="1"></path></marker><marker id="SvgjsMarker1164" markerWidth="14" markerHeight="10" refX="10" refY="5" viewBox="0 0 14 10" orient="auto" markerUnits="userSpaceOnUse" stroke-dasharray="0,0"><path id="SvgjsPath1165" d="M0,0 L14,5 L0,10 L0,0" fill="#323232" stroke="#323232" stroke-width="1"></path></marker><marker id="SvgjsMarker1168" markerWidth="14" markerHeight="10" refX="10" refY="5" viewBox="0 0 14 10" orient="auto" markerUnits="userSpaceOnUse" stroke-dasharray="0,0"><path id="SvgjsPath1169" d="M0,0 L14,5 L0,10 L0,0" fill="#323232" stroke="#323232" stroke-width="1"></path></marker><marker id="SvgjsMarker1172" markerWidth="14" markerHeight="10" refX="4" refY="5" viewBox="0 0 14 10" orient="auto" markerUnits="userSpaceOnUse" stroke-dasharray="0,0"><path id="SvgjsPath1173" d="M14,0 L0,5 L14,10 L14,0" fill="#323232" stroke="#323232" stroke-width="1"></path></marker><marker id="SvgjsMarker1174" markerWidth="14" markerHeight="10" refX="10" refY="5" viewBox="0 0 14 10" orient="auto" markerUnits="userSpaceOnUse" stroke-dasharray="0,0"><path id="SvgjsPath1175" d="M0,0 L14,5 L0,10 L0,0" fill="#323232" stroke="#323232" stroke-width="1"></path></marker><marker id="SvgjsMarker1178" markerWidth="14" markerHeight="10" refX="10" refY="5" viewBox="0 0 14 10" orient="auto" markerUnits="userSpaceOnUse" stroke-dasharray="0,0"><path id="SvgjsPath1179" d="M0,0 L14,5 L0,10 L0,0" fill="#323232" stroke="#323232" stroke-width="1"></path></marker><marker id="SvgjsMarker1182" markerWidth="14" markerHeight="10" refX="10" refY="5" viewBox="0 0 14 10" orient="auto" markerUnits="userSpaceOnUse" stroke-dasharray="0,0"><path id="SvgjsPath1183" d="M0,0 L14,5 L0,10 L0,0" fill="#323232" stroke="#323232" stroke-width="1"></path></marker><marker id="SvgjsMarker1186" markerWidth="14" markerHeight="10" refX="10" refY="5" viewBox="0 0 14 10" orient="auto" markerUnits="userSpaceOnUse" stroke-dasharray="0,0"><path id="SvgjsPath1187" d="M0,0 L14,5 L0,10 L0,0" fill="#323232" stroke="#323232" stroke-width="1"></path></marker><marker id="SvgjsMarker1190" markerWidth="14" markerHeight="10" refX="10" refY="5" viewBox="0 0 14 10" orient="auto" markerUnits="userSpaceOnUse" stroke-dasharray="0,0"><path id="SvgjsPath1191" d="M0,0 L14,5 L0,10 L0,0" fill="#323232" stroke="#323232" stroke-width="1"></path></marker><marker id="SvgjsMarker1194" markerWidth="14" markerHeight="10" refX="10" refY="5" viewBox="0 0 14 10" orient="auto" markerUnits="userSpaceOnUse" stroke-dasharray="0,0"><path id="SvgjsPath1195" d="M0,0 L14,5 L0,10 L0,0" fill="#323232" stroke="#323232" stroke-width="1"></path></marker><marker id="SvgjsMarker1198" markerWidth="14" markerHeight="10" refX="10" refY="5" viewBox="0 0 14 10" orient="auto" markerUnits="userSpaceOnUse" stroke-dasharray="0,0"><path id="SvgjsPath1199" d="M0,0 L14,5 L0,10 L0,0" fill="#323232" stroke="#323232" stroke-width="1"></path></marker><marker id="SvgjsMarker1258" markerWidth="14" markerHeight="10" refX="10" refY="5" viewBox="0 0 14 10" orient="auto" markerUnits="userSpaceOnUse" stroke-dasharray="0,0"><path id="SvgjsPath1259" d="M0,0 L14,5 L0,10 L0,0" fill="#323232" stroke="#323232" stroke-width="1"></path></marker><pattern id="SvgjsPattern1348" x="0" y="0" width="58.777842203775975" height="55.275943056733695" patternUnits="userSpaceOnUse"><image id="SvgjsImage1349" xlink:href="https://iconsapi.com/5ee76597e4b01754b3cbd889.svg" width="58.777842203775975" height="55.275943056733695" preserveAspectRatio="none" crossOrigin="anonymous" x="0" y="0"></image></pattern><marker id="SvgjsMarker1352" markerWidth="14" markerHeight="10" refX="10" refY="5" viewBox="0 0 14 10" orient="auto" markerUnits="userSpaceOnUse" stroke-dasharray="0,0"><path id="SvgjsPath1353" d="M0,0 L14,5 L0,10 L0,0" fill="#323232" stroke="#323232" stroke-width="1"></path></marker></defs><g id="SvgjsG1008" transform="matrix(6.123233995736766e-17,1,-1,6.123233995736766e-17,1502.208317032391,24.995773562854275)"><path id="SvgjsPath1009" d="M 0 0L 114.05629346953674 0L 114.05629346953674 1071.3889050483704L 0 1071.3889050483704Z" stroke-dasharray="10,6" stroke="rgba(50,50,50,1)" stroke-width="2" fill-opacity="1" fill="#ffffff"></path><g id="SvgjsG1010"><text id="SvgjsText1011" font-family="微软雅黑" text-anchor="middle" font-size="13px" width="95px" fill="#323232" font-weight="400" align="middle" lineHeight="125%" anchor="middle" family="微软雅黑" size="13px" weight="400" font-style="" opacity="1" y="526.0694525241852" transform="rotate(0)"></text></g></g><g id="SvgjsG1012" transform="translate(684.1527608235677,167.7946829893766)"><path id="SvgjsPath1013" d="M 0 0L 814.305571715037 0L 814.305571715037 386.6740670106234L 0 386.6740670106234Z" stroke-dasharray="10,6" stroke="rgba(50,50,50,1)" stroke-width="2" fill-opacity="1" fill="#ffffff"></path><g id="SvgjsG1014"><text id="SvgjsText1015" font-family="微软雅黑" text-anchor="middle" font-size="13px" width="795px" fill="#323232" font-weight="400" align="middle" lineHeight="125%" anchor="middle" family="微软雅黑" size="13px" weight="400" font-style="" opacity="1" y="183.7120335053117" transform="rotate(0)"></text></g></g><g id="SvgjsG1016" transform="translate(429.3888880411785,166.5446829893766)"><path id="SvgjsPath1017" d="M 0 0L 129.13888041178365 0L 129.13888041178365 382.50740034395676L 0 382.50740034395676Z" stroke-dasharray="10,6" stroke="rgba(50,50,50,1)" stroke-width="2" fill-opacity="1" fill="#ffffff"></path><g id="SvgjsG1018"><text id="SvgjsText1019" font-family="微软雅黑" text-anchor="middle" font-size="13px" width="110px" fill="#323232" font-weight="400" align="middle" lineHeight="125%" anchor="middle" family="微软雅黑" size="13px" weight="400" font-style="" opacity="1" y="181.62870017197838" transform="rotate(0)"></text></g></g><g id="SvgjsG1020" transform="matrix(6.123233995736766e-17,1,-1,6.123233995736766e-17,1503.4583624908673,581.6624532630698)"><path id="SvgjsPath1021" d="M 0 0L 113.63963633961373 0L 113.63963633961373 1072.6389050483706L 0 1072.6389050483706Z" stroke-dasharray="10,6" stroke="rgba(50,50,50,1)" stroke-width="2" fill-opacity="1" fill="#ffffff"></path><g id="SvgjsG1022"><text id="SvgjsText1023" font-family="微软雅黑" text-anchor="middle" font-size="13px" width="94px" fill="#323232" font-weight="400" align="middle" lineHeight="125%" anchor="middle" family="微软雅黑" size="13px" weight="400" font-style="" opacity="1" y="526.6944525241853" transform="rotate(0)"></text></g></g><g id="SvgjsG1024" transform="translate(224.15276082356775,167.7946829893766)"><path id="SvgjsPath1025" d="M 0 0L 123.77779134114579 0L 123.77779134114579 380.00740034395676L 0 380.00740034395676Z" stroke-dasharray="10,6" stroke="rgba(50,50,50,1)" stroke-width="2" fill-opacity="1" fill="#ffffff"></path><g id="SvgjsG1026"><text id="SvgjsText1027" font-family="微软雅黑" text-anchor="middle" font-size="13px" width="104px" fill="#323232" font-weight="400" align="middle" lineHeight="125%" anchor="middle" family="微软雅黑" size="13px" weight="400" font-style="" opacity="1" y="180.37870017197838" transform="rotate(0)"></text></g></g><g id="SvgjsG1028" transform="translate(250.04165649414062,330.46875)"><path id="SvgjsPath1029" d="M 0 4Q 0 0 4 0L 68 0Q 72 0 72 4L 72 39Q 72 43 68 43L 4 43Q 0 43 0 39Z" stroke="rgba(50,50,50,1)" stroke-width="2" fill-opacity="1" fill="#f5f5f5"></path><g id="SvgjsG1030"><text id="SvgjsText1031" font-family="微软雅黑" text-anchor="middle" font-size="15px" width="52px" fill="#323232" font-weight="700" align="middle" lineHeight="125%" anchor="middle" family="微软雅黑" size="15px" weight="700" font-style="" opacity="1" y="10.125" transform="rotate(0)"><tspan id="SvgjsTspan1032" dy="18" x="36"><tspan id="SvgjsTspan1033" style="text-decoration:;">Nginx</tspan></tspan></text></g></g><g id="SvgjsG1034" transform="translate(442.0915703161017,311.8713946233048)"><path id="SvgjsPath1035" d="M 0 4Q 0 0 4 0L 102.8819262186687 0Q 106.8819262186687 0 106.8819262186687 4L 106.8819262186687 87.85397707610036Q 106.8819262186687 91.85397707610036 102.8819262186687 91.85397707610036L 4 91.85397707610036Q 0 91.85397707610036 0 87.85397707610036Z" stroke="rgba(50,50,50,1)" stroke-width="2" fill-opacity="1" fill="#ffeb3b"></path><g id="SvgjsG1036"><text id="SvgjsText1037" font-family="微软雅黑" text-anchor="middle" font-size="15px" width="87px" fill="#323232" font-weight="700" align="middle" lineHeight="125%" anchor="middle" family="微软雅黑" size="15px" weight="700" font-style="" opacity="1" y="6.551988538050182" transform="rotate(0)"><tspan id="SvgjsTspan1038" dy="18" x="53.5"><tspan id="SvgjsTspan1039" style="text-decoration:;">Spring </tspan></tspan><tspan id="SvgjsTspan1040" dy="18" x="53.5"><tspan id="SvgjsTspan1041" style="text-decoration:;">Cloud </tspan></tspan><tspan id="SvgjsTspan1042" dy="18" x="53.5"><tspan id="SvgjsTspan1043" style="text-decoration:;">Gateway</tspan></tspan><tspan id="SvgjsTspan1044" dy="18" x="53.5"><tspan id="SvgjsTspan1045" style="text-decoration:;">服务网关</tspan></tspan></text></g></g><g id="SvgjsG1046" transform="translate(712.6677961326908,229.45917917889957)"><path id="SvgjsPath1047" d="M 0 4Q 0 0 4 0L 204.76799382231175 0Q 208.76799382231175 0 208.76799382231175 4L 208.76799382231175 41.43605543890956Q 208.76799382231175 45.43605543890956 204.76799382231175 45.43605543890956L 4 45.43605543890956Q 0 45.43605543890956 0 41.43605543890956Z" stroke="rgba(50,50,50,1)" stroke-width="2" fill-opacity="1" fill="#a8ffa8"></path><g id="SvgjsG1048"><text id="SvgjsText1049" font-family="微软雅黑" text-anchor="start" font-size="14px" width="189px" fill="#323232" font-weight="700" align="middle" lineHeight="125%" anchor="start" family="微软雅黑" size="14px" weight="700" font-style="" opacity="1" y="12.468027719454781" transform="rotate(0)"><tspan id="SvgjsTspan1050" dy="17" x="10"><tspan id="SvgjsTspan1051" style="text-decoration:;">用户基本信息微服务</tspan></tspan></text></g></g><g id="SvgjsG1052" transform="translate(712.6677961326908,286.7566799480801)"><path id="SvgjsPath1053" d="M 0 4Q 0 0 4 0L 204.76799382231175 0Q 208.76799382231175 0 208.76799382231175 4L 208.76799382231175 41.43605543890956Q 208.76799382231175 45.43605543890956 204.76799382231175 45.43605543890956L 4 45.43605543890956Q 0 45.43605543890956 0 41.43605543890956Z" stroke="rgba(50,50,50,1)" stroke-width="2" fill-opacity="1" fill="#a8ffa8"></path><g id="SvgjsG1054"><text id="SvgjsText1055" font-family="微软雅黑" text-anchor="start" font-size="15px" width="189px" fill="#323232" font-weight="700" align="middle" lineHeight="125%" anchor="start" family="微软雅黑" size="15px" weight="700" font-style="" opacity="1" y="11.343027719454781" transform="rotate(0)"><tspan id="SvgjsTspan1056" dy="18" x="10"><tspan id="SvgjsTspan1057" style="text-decoration:;">用户购物车微服务</tspan></tspan></text></g></g><g id="SvgjsG1058" transform="translate(712.6677961326909,347.80425381047786)"><path id="SvgjsPath1059" d="M 0 4Q 0 0 4 0L 204.76799382231175 0Q 208.76799382231175 0 208.76799382231175 4L 208.76799382231175 41.43605543890956Q 208.76799382231175 45.43605543890956 204.76799382231175 45.43605543890956L 4 45.43605543890956Q 0 45.43605543890956 0 41.43605543890956Z" stroke="rgba(50,50,50,1)" stroke-width="2" fill-opacity="1" fill="#a8ffa8"></path><g id="SvgjsG1060"><text id="SvgjsText1061" font-family="微软雅黑" text-anchor="start" font-size="15px" width="189px" fill="#323232" font-weight="700" align="middle" lineHeight="125%" anchor="start" family="微软雅黑" size="15px" weight="700" font-style="" opacity="1" y="11.343027719454781" transform="rotate(0)"><tspan id="SvgjsTspan1062" dy="18" x="10"><tspan id="SvgjsTspan1063" style="text-decoration:;">用户收藏夹微服务</tspan></tspan></text></g></g><g id="SvgjsG1064" transform="translate(714.9917681034946,406.976791126267)"><path id="SvgjsPath1065" d="M 0 4Q 0 0 4 0L 204.76799382231175 0Q 208.76799382231175 0 208.76799382231175 4L 208.76799382231175 41.43605543890956Q 208.76799382231175 45.43605543890956 204.76799382231175 45.43605543890956L 4 45.43605543890956Q 0 45.43605543890956 0 41.43605543890956Z" stroke="rgba(50,50,50,1)" stroke-width="2" fill-opacity="1" fill="#a8ffa8"></path><g id="SvgjsG1066"><text id="SvgjsText1067" font-family="微软雅黑" text-anchor="start" font-size="13px" width="189px" fill="#323232" font-weight="700" align="middle" lineHeight="125%" anchor="start" family="微软雅黑" size="13px" weight="700" font-style="" opacity="1" y="13.093027719454781" transform="rotate(0)"><tspan id="SvgjsTspan1068" dy="16" x="10"><tspan id="SvgjsTspan1069" style="text-decoration:;">。。。</tspan></tspan></text></g></g><g id="SvgjsG1070" transform="translate(1045.4852352241464,229.45917917889957)"><path id="SvgjsPath1071" d="M 0 4Q 0 0 4 0L 204.76799382231175 0Q 208.76799382231175 0 208.76799382231175 4L 208.76799382231175 41.43605543890956Q 208.76799382231175 45.43605543890956 204.76799382231175 45.43605543890956L 4 45.43605543890956Q 0 45.43605543890956 0 41.43605543890956Z" stroke="rgba(50,50,50,1)" stroke-width="2" fill-opacity="1" fill="#a8ffa8"></path><g id="SvgjsG1072"><text id="SvgjsText1073" font-family="微软雅黑" text-anchor="start" font-size="13px" width="189px" fill="#323232" font-weight="700" align="middle" lineHeight="125%" anchor="start" family="微软雅黑" size="13px" weight="700" font-style="" opacity="1" y="13.093027719454781" transform="rotate(0)"><tspan id="SvgjsTspan1074" dy="16" x="10"><tspan id="SvgjsTspan1075" style="text-decoration:;">卖家店铺基本信息微服务</tspan></tspan></text></g></g><g id="SvgjsG1076" transform="translate(1045.4852352241464,286.75667994808003)"><path id="SvgjsPath1077" d="M 0 4Q 0 0 4 0L 204.76799382231175 0Q 208.76799382231175 0 208.76799382231175 4L 208.76799382231175 41.43605543890956Q 208.76799382231175 45.43605543890956 204.76799382231175 45.43605543890956L 4 45.43605543890956Q 0 45.43605543890956 0 41.43605543890956Z" stroke="rgba(50,50,50,1)" stroke-width="2" fill-opacity="1" fill="#a8ffa8"></path><g id="SvgjsG1078"><text id="SvgjsText1079" font-family="微软雅黑" text-anchor="start" font-size="14px" width="189px" fill="#323232" font-weight="700" align="middle" lineHeight="125%" anchor="start" family="微软雅黑" size="14px" weight="700" font-style="" opacity="1" y="12.468027719454781" transform="rotate(0)"><tspan id="SvgjsTspan1080" dy="17" x="10"><tspan id="SvgjsTspan1081" style="text-decoration:;">卖家店铺商品微服务</tspan></tspan></text></g></g><g id="SvgjsG1082" transform="translate(1045.4852352241464,347.80425381047786)"><path id="SvgjsPath1083" d="M 0 4Q 0 0 4 0L 204.76799382231175 0Q 208.76799382231175 0 208.76799382231175 4L 208.76799382231175 41.43605543890956Q 208.76799382231175 45.43605543890956 204.76799382231175 45.43605543890956L 4 45.43605543890956Q 0 45.43605543890956 0 41.43605543890956Z" stroke="rgba(50,50,50,1)" stroke-width="2" fill-opacity="1" fill="#a8ffa8"></path><g id="SvgjsG1084"><text id="SvgjsText1085" font-family="微软雅黑" text-anchor="start" font-size="14px" width="189px" fill="#323232" font-weight="700" align="middle" lineHeight="125%" anchor="start" family="微软雅黑" size="14px" weight="700" font-style="" opacity="1" y="12.468027719454781" transform="rotate(0)"><tspan id="SvgjsTspan1086" dy="17" x="10"><tspan id="SvgjsTspan1087" style="text-decoration:;">卖家店铺订单微服务</tspan></tspan></text></g></g><g id="SvgjsG1088" transform="translate(1045.4852352241464,406.9767911262671)"><path id="SvgjsPath1089" d="M 0 4Q 0 0 4 0L 204.76799382231175 0Q 208.76799382231175 0 208.76799382231175 4L 208.76799382231175 41.43605543890956Q 208.76799382231175 45.43605543890956 204.76799382231175 45.43605543890956L 4 45.43605543890956Q 0 45.43605543890956 0 41.43605543890956Z" stroke="rgba(50,50,50,1)" stroke-width="2" fill-opacity="1" fill="#a8ffa8"></path><g id="SvgjsG1090"><text id="SvgjsText1091" font-family="微软雅黑" text-anchor="start" font-size="13px" width="189px" fill="#323232" font-weight="700" align="middle" lineHeight="125%" anchor="start" family="微软雅黑" size="13px" weight="700" font-style="" opacity="1" y="13.093027719454781" transform="rotate(0)"><tspan id="SvgjsTspan1092" dy="16" x="10"><tspan id="SvgjsTspan1093" style="text-decoration:;">。。。</tspan></tspan></text></g></g><g id="SvgjsG1094" transform="translate(1271.1761831547747,229.4591791788996)"><path id="SvgjsPath1095" d="M 0 4Q 0 0 4 0L 204.76799382231175 0Q 208.76799382231175 0 208.76799382231175 4L 208.76799382231175 41.43605543890956Q 208.76799382231175 45.43605543890956 204.76799382231175 45.43605543890956L 4 45.43605543890956Q 0 45.43605543890956 0 41.43605543890956Z" stroke="rgba(50,50,50,1)" stroke-width="2" fill-opacity="1" fill="#a8ffa8"></path><g id="SvgjsG1096"><text id="SvgjsText1097" font-family="微软雅黑" text-anchor="start" font-size="16px" width="189px" fill="#323232" font-weight="700" align="middle" lineHeight="125%" anchor="start" family="微软雅黑" size="16px" weight="700" font-style="" opacity="1" y="10.718027719454781" transform="rotate(0)"><tspan id="SvgjsTspan1098" dy="20" x="10"><tspan id="SvgjsTspan1099" style="text-decoration:;">平台活动微服务</tspan></tspan></text></g></g><g id="SvgjsG1100" transform="translate(1271.1761831547747,286.75667994808003)"><path id="SvgjsPath1101" d="M 0 4Q 0 0 4 0L 204.76799382231175 0Q 208.76799382231175 0 208.76799382231175 4L 208.76799382231175 41.43605543890956Q 208.76799382231175 45.43605543890956 204.76799382231175 45.43605543890956L 4 45.43605543890956Q 0 45.43605543890956 0 41.43605543890956Z" stroke="rgba(50,50,50,1)" stroke-width="2" fill-opacity="1" fill="#a8ffa8"></path><g id="SvgjsG1102"><text id="SvgjsText1103" font-family="微软雅黑" text-anchor="start" font-size="15px" width="189px" fill="#323232" font-weight="700" align="middle" lineHeight="125%" anchor="start" family="微软雅黑" size="15px" weight="700" font-style="" opacity="1" y="11.343027719454781" transform="rotate(0)"><tspan id="SvgjsTspan1104" dy="18" x="10"><tspan id="SvgjsTspan1105" style="text-decoration:;">平台轮播图微服务</tspan></tspan></text></g></g><g id="SvgjsG1106" transform="translate(1271.1761831547747,347.8042538104779)"><path id="SvgjsPath1107" d="M 0 4Q 0 0 4 0L 204.76799382231175 0Q 208.76799382231175 0 208.76799382231175 4L 208.76799382231175 41.43605543890956Q 208.76799382231175 45.43605543890956 204.76799382231175 45.43605543890956L 4 45.43605543890956Q 0 45.43605543890956 0 41.43605543890956Z" stroke="rgba(50,50,50,1)" stroke-width="2" fill-opacity="1" fill="#a8ffa8"></path><g id="SvgjsG1108"><text id="SvgjsText1109" font-family="微软雅黑" text-anchor="start" font-size="17px" width="189px" fill="#323232" font-weight="700" align="middle" lineHeight="125%" anchor="start" family="微软雅黑" size="17px" weight="700" font-style="" opacity="1" y="10.093027719454781" transform="rotate(0)"><tspan id="SvgjsTspan1110" dy="21" x="10"><tspan id="SvgjsTspan1111" style="text-decoration:;">平台积分商城</tspan></tspan></text></g></g><g id="SvgjsG1112" transform="translate(1271.1761831547747,400.9927330173271)"><path id="SvgjsPath1113" d="M 0 4Q 0 0 4 0L 204.76799382231175 0Q 208.76799382231175 0 208.76799382231175 4L 208.76799382231175 41.43605543890956Q 208.76799382231175 45.43605543890956 204.76799382231175 45.43605543890956L 4 45.43605543890956Q 0 45.43605543890956 0 41.43605543890956Z" stroke="rgba(50,50,50,1)" stroke-width="2" fill-opacity="1" fill="#a8ffa8"></path><g id="SvgjsG1114"><text id="SvgjsText1115" font-family="微软雅黑" text-anchor="start" font-size="13px" width="189px" fill="#323232" font-weight="700" align="middle" lineHeight="125%" anchor="start" family="微软雅黑" size="13px" weight="700" font-style="" opacity="1" y="13.093027719454781" transform="rotate(0)"><tspan id="SvgjsTspan1116" dy="16" x="10"><tspan id="SvgjsTspan1117" style="text-decoration:;">。。。</tspan></tspan></text></g></g><g id="SvgjsG1118" transform="translate(24.991742672179456,328.8020833333333)"><path id="SvgjsPath1119" d="M 0 0L 70 0L 70 56.666666666666686L 0 56.666666666666686Z" stroke="none" fill="url(#SvgjsPattern1120)"></path></g><g id="SvgjsG1122" transform="translate(39.930531819661375,333.46875)"><path id="SvgjsPath1123" d="M 0 0L 120 0L 120 40L 0 40Z" stroke="none" fill="none"></path><g id="SvgjsG1124"><text id="SvgjsText1125" font-family="微软雅黑" text-anchor="middle" font-size="16px" width="120px" fill="#323232" font-weight="700" align="middle" lineHeight="125%" anchor="middle" family="微软雅黑" size="16px" weight="700" font-style="" opacity="1" y="8" transform="rotate(0)"><tspan id="SvgjsTspan1126" dy="20" x="60"><tspan id="SvgjsTspan1127" style="text-decoration:;">Client</tspan></tspan></text></g></g><g id="SvgjsG1128" transform="translate(675.8749999999999,61.25023642686112)"><path id="SvgjsPath1129" d="M 0 4Q 0 0 4 0L 192.91404284811696 0Q 196.91404284811696 0 196.91404284811696 4L 196.91404284811696 45.11109415690103Q 196.91404284811696 49.11109415690103 192.91404284811696 49.11109415690103L 4 49.11109415690103Q 0 49.11109415690103 0 45.11109415690103Z" stroke="rgba(50,50,50,1)" stroke-width="2" fill-opacity="1" fill="#bbdefb"></path><g id="SvgjsG1130"><text id="SvgjsText1131" font-family="微软雅黑" text-anchor="middle" font-size="13px" width="177px" fill="#323232" font-weight="700" align="middle" lineHeight="125%" anchor="middle" family="微软雅黑" size="13px" weight="700" font-style="" opacity="1" y="6.430547078450516" transform="rotate(0)"><tspan id="SvgjsTspan1132" dy="16" x="98.5"><tspan id="SvgjsTspan1133" style="text-decoration:;">spring cloud alibaba nacos</tspan></tspan><tspan id="SvgjsTspan1134" dy="16" x="98.5"><tspan id="SvgjsTspan1135" style="text-decoration:;">服务治理</tspan></tspan></text></g></g><g id="SvgjsG1136" transform="translate(960.5720513087844,61.250236426861136)"><path id="SvgjsPath1137" d="M 0 4Q 0 0 4 0L 192.91404284811696 0Q 196.91404284811696 0 196.91404284811696 4L 196.91404284811696 45.11109415690103Q 196.91404284811696 49.11109415690103 192.91404284811696 49.11109415690103L 4 49.11109415690103Q 0 49.11109415690103 0 45.11109415690103Z" stroke="rgba(50,50,50,1)" stroke-width="2" fill-opacity="1" fill="#bbdefb"></path><g id="SvgjsG1138"><text id="SvgjsText1139" font-family="微软雅黑" text-anchor="middle" font-size="13px" width="177px" fill="#323232" font-weight="700" align="middle" lineHeight="125%" anchor="middle" family="微软雅黑" size="13px" weight="700" font-style="" opacity="1" y="6.430547078450516" transform="rotate(0)"><tspan id="SvgjsTspan1140" dy="16" x="98.5"><tspan id="SvgjsTspan1141" style="text-decoration:;">spring cloud alibaba nacos</tspan></tspan><tspan id="SvgjsTspan1142" dy="16" x="98.5"><tspan id="SvgjsTspan1143" style="text-decoration:;">配置管理</tspan></tspan></text></g></g><g id="SvgjsG1144" transform="translate(738.9526742481653,596.9504464663293)"><path id="SvgjsPath1145" d="M 19.50833364725107 0L 115.8931664939462 0C 133.9180279631753 0 133.9180279631753 84.97434692636568 115.8931664939462 84.97434692636568L 19.50833364725107 84.97434692636568C -6.502777882417025 84.97434692636568 -6.502777882417025 0 19.50833364725107 0ZM 115.8931664939462 0C 98.19017755095335 0 98.19017755095335 84.97434692636568 115.8931664939462 84.97434692636568C 98.19017755095335 84.97434692636568 98.19017755095335 0 115.8931664939462 0" stroke="rgba(50,50,50,1)" stroke-width="2" fill-opacity="1" fill="#ffe0b2"></path><g id="SvgjsG1146"><text id="SvgjsText1147" font-family="微软雅黑" text-anchor="middle" font-size="20px" width="105px" fill="#323232" font-weight="700" align="middle" lineHeight="125%" anchor="middle" family="微软雅黑" size="20px" weight="700" font-style="" opacity="1" y="27.48717346318284" transform="rotate(0)"><tspan id="SvgjsTspan1148" dy="25" x="52.5"><tspan id="SvgjsTspan1149" style="text-decoration:;">MQ 集群</tspan></tspan></text></g></g><g id="SvgjsG1150" transform="translate(1154.2532290464583,596.9504464663293)"><path id="SvgjsPath1151" d="M 18.318265643031257 0L 108.27782926853304 0C 125.89739141308955 0 125.89739141308955 83.0636501100521 108.27782926853304 83.0636501100521L 18.318265643031257 83.0636501100521C -6.1060885476770865 83.0636501100521 -6.1060885476770865 0 18.318265643031257 0ZM 108.27782926853304 0C 90.97290216227219 0 90.97290216227219 83.0636501100521 108.27782926853304 83.0636501100521C 90.97290216227219 83.0636501100521 90.97290216227219 0 108.27782926853304 0" stroke="rgba(50,50,50,1)" stroke-width="2" fill-opacity="1" fill="#ffcdd2"></path><g id="SvgjsG1152"><text id="SvgjsText1153" font-family="微软雅黑" text-anchor="middle" font-size="20px" width="98px" fill="#323232" font-weight="700" align="middle" lineHeight="125%" anchor="middle" family="微软雅黑" size="20px" weight="700" font-style="" opacity="1" y="14.031825055026047" transform="rotate(0)"><tspan id="SvgjsTspan1154" dy="25" x="49"><tspan id="SvgjsTspan1155" style="text-decoration:;">Redis 集</tspan></tspan><tspan id="SvgjsTspan1156" dy="25" x="49"><tspan id="SvgjsTspan1157" style="text-decoration:;">群</tspan></tspan></text></g></g><g id="SvgjsG1158"><path id="SvgjsPath1159" d="M348.9305521647135 357.798383161355L395.01106124040757 357.798383161355L395.01106124040757 357.798383161355L438.4915703161017 357.798383161355" stroke="#323232" stroke-width="2" fill="none" marker-end="url(#SvgjsMarker1160)"></path></g><g id="SvgjsG1162"><path id="SvgjsPath1163" d="M496.3429989011007 311.2856082179013L771.4143457116652 112.47016164321465" stroke="#323232" stroke-width="2" fill="none" marker-end="url(#SvgjsMarker1164)"></path></g><g id="SvgjsG1166"><path id="SvgjsPath1167" d="M1058.0874692008074 110.6980541921689L498.92230614076334 310.65918963304046" stroke="#323232" stroke-width="2" fill="none" marker-end="url(#SvgjsMarker1168)"></path></g><g id="SvgjsG1170"><path id="SvgjsPath1171" d="M1010.9583325386047 216.12616623672082L777.6186552085605 111.83035691659911" stroke="#323232" stroke-width="2" fill="none" marker-start="url(#SvgjsMarker1172)" marker-end="url(#SvgjsMarker1174)"></path></g><g id="SvgjsG1176"><path id="SvgjsPath1177" d="M1059.1859775325397 111.34894431586194L1074.7083325386047 209.05208015441895" stroke="#323232" stroke-width="2" fill="none" marker-end="url(#SvgjsMarker1178)"></path></g><g id="SvgjsG1180"><path id="SvgjsPath1181" d="M819.4999999999998 477.8020896911621L804.445439465575 593.3806022604706" stroke="#323232" stroke-width="2" fill="none" marker-end="url(#SvgjsMarker1182)"></path></g><g id="SvgjsG1184"><path id="SvgjsPath1185" d="M869.0689053370199 638.4394622597944L878.4583325386047 483.97107055326586" stroke="#323232" stroke-width="2" fill="none" marker-end="url(#SvgjsMarker1186)"></path></g><g id="SvgjsG1188"><path id="SvgjsPath1189" d="M1154.1228871960632 637.490802408354L1133.4583325386047 480.3020896911621" stroke="#323232" stroke-width="2" fill="none" marker-end="url(#SvgjsMarker1190)"></path></g><g id="SvgjsG1192"><path id="SvgjsPath1193" d="M1233.4583325386047 473.1379599426655L1215.8361046491614 593.3884910611579" stroke="#323232" stroke-width="2" fill="none" marker-end="url(#SvgjsMarker1194)"></path></g><g id="SvgjsG1196"><path id="SvgjsPath1197" d="M549.9734965347704 357.798383161355L697.625 357.798383161355" stroke="#323232" stroke-width="2" fill="none" marker-end="url(#SvgjsMarker1198)"></path></g><g id="SvgjsG1200" transform="translate(250.04165649414062,408.19481884572184)"><path id="SvgjsPath1201" d="M 0 4Q 0 0 4 0L 68 0Q 72 0 72 4L 72 39Q 72 43 68 43L 4 43Q 0 43 0 39Z" stroke="rgba(50,50,50,1)" stroke-width="2" fill-opacity="1" fill="#ffffff"></path><g id="SvgjsG1202"><text id="SvgjsText1203" font-family="微软雅黑" text-anchor="middle" font-size="15px" width="52px" fill="#323232" font-weight="700" align="middle" lineHeight="125%" anchor="middle" family="微软雅黑" size="15px" weight="700" font-style="" opacity="1" y="1.125" transform="rotate(0)"><tspan id="SvgjsTspan1204" dy="18" x="36"><tspan id="SvgjsTspan1205" style="text-decoration:;">图片静</tspan></tspan><tspan id="SvgjsTspan1206" dy="18" x="36"><tspan id="SvgjsTspan1207" style="text-decoration:;">态资源</tspan></tspan></text></g></g><g id="SvgjsG1208" transform="translate(521.4387611730356,358.49243872764555)"><path id="SvgjsPath1209" d="M 0 0L 173.784735361735 0L 173.784735361735 41.25370017197815L 0 41.25370017197815Z" stroke="none" fill="none"></path><g id="SvgjsG1210"><text id="SvgjsText1211" font-family="微软雅黑" text-anchor="middle" font-size="17px" width="174px" fill="#323232" font-weight="700" align="middle" lineHeight="125%" anchor="middle" family="微软雅黑" size="17px" weight="700" font-style="" opacity="1" y="8.001850085989076" transform="rotate(0)"><tspan id="SvgjsTspan1212" dy="21" x="87"><tspan id="SvgjsTspan1213" style="text-decoration:;">请求路由</tspan></tspan></text></g></g><g id="SvgjsG1214" transform="matrix(0.9063077870366498,0.4226182617406998,-0.4226182617406998,0.9063077870366498,821.948692742266,91.33828745403746)"><path id="SvgjsPath1215" d="M 0 0L 173.784735361735 0L 173.784735361735 41.25370017197815L 0 41.25370017197815Z" stroke="none" fill="none"></path><g id="SvgjsG1216"><text id="SvgjsText1217" font-family="微软雅黑" text-anchor="middle" font-size="17px" width="174px" fill="#323232" font-weight="700" align="middle" lineHeight="125%" anchor="middle" family="微软雅黑" size="17px" weight="700" font-style="" opacity="1" y="8.001850085989076" transform="rotate(0)"><tspan id="SvgjsTspan1218" dy="21" x="87"><tspan id="SvgjsTspan1219" style="text-decoration:;">服务注册 / 服务发现</tspan></tspan></text></g></g><g id="SvgjsG1220" transform="matrix(0.9396926207859084,-0.3420201433256686,0.3420201433256686,0.9396926207859084,659.525723741867,218.34091255847932)"><path id="SvgjsPath1221" d="M 0 0L 173.784735361735 0L 173.784735361735 41.25370017197815L 0 41.25370017197815Z" stroke="none" fill="none"></path><g id="SvgjsG1222"><text id="SvgjsText1223" font-family="微软雅黑" text-anchor="middle" font-size="17px" width="174px" fill="#323232" font-weight="700" align="middle" lineHeight="125%" anchor="middle" family="微软雅黑" size="17px" weight="700" font-style="" opacity="1" y="8.001850085989076" transform="rotate(0)"><tspan id="SvgjsTspan1224" dy="21" x="87"><tspan id="SvgjsTspan1225" style="text-decoration:;">配置拉取</tspan></tspan></text></g></g><g id="SvgjsG1226" transform="translate(1009.413618874021,131.68559205968847)"><path id="SvgjsPath1227" d="M 0 0L 173.784735361735 0L 173.784735361735 41.25370017197815L 0 41.25370017197815Z" stroke="none" fill="none"></path><g id="SvgjsG1228"><text id="SvgjsText1229" font-family="微软雅黑" text-anchor="middle" font-size="17px" width="174px" fill="#323232" font-weight="700" align="middle" lineHeight="125%" anchor="middle" family="微软雅黑" size="17px" weight="700" font-style="" opacity="1" y="8.001850085989076" transform="rotate(0)"><tspan id="SvgjsTspan1230" dy="21" x="87"><tspan id="SvgjsTspan1231" style="text-decoration:;">配置拉取</tspan></tspan></text></g></g><g id="SvgjsG1232" transform="translate(695.2234965347709,507.7983831613551)"><path id="SvgjsPath1233" d="M 0 0L 173.784735361735 0L 173.784735361735 41.25370017197815L 0 41.25370017197815Z" stroke="none" fill="none"></path><g id="SvgjsG1234"><text id="SvgjsText1235" font-family="微软雅黑" text-anchor="middle" font-size="17px" width="174px" fill="#323232" font-weight="700" align="middle" lineHeight="125%" anchor="middle" family="微软雅黑" size="17px" weight="700" font-style="" opacity="1" y="8.001850085989076" transform="rotate(0)"><tspan id="SvgjsTspan1236" dy="21" x="87"><tspan id="SvgjsTspan1237" style="text-decoration:;">领域事件发布</tspan></tspan></text></g></g><g id="SvgjsG1238" transform="translate(807.5902646382651,529.0446829893767)"><path id="SvgjsPath1239" d="M 0 0L 173.784735361735 0L 173.784735361735 41.25370017197815L 0 41.25370017197815Z" stroke="none" fill="none"></path><g id="SvgjsG1240"><text id="SvgjsText1241" font-family="微软雅黑" text-anchor="middle" font-size="17px" width="174px" fill="#323232" font-weight="700" align="middle" lineHeight="125%" anchor="middle" family="微软雅黑" size="17px" weight="700" font-style="" opacity="1" y="8.001850085989076" transform="rotate(0)"><tspan id="SvgjsTspan1242" dy="21" x="87"><tspan id="SvgjsTspan1243" style="text-decoration:;">领域事件推送</tspan></tspan></text></g></g><g id="SvgjsG1244" transform="translate(1055.241020015953,507.7983831613552)"><path id="SvgjsPath1245" d="M 0 0L 173.784735361735 0L 173.784735361735 41.25370017197815L 0 41.25370017197815Z" stroke="none" fill="none"></path><g id="SvgjsG1246"><text id="SvgjsText1247" font-family="微软雅黑" text-anchor="middle" font-size="17px" width="174px" fill="#323232" font-weight="700" align="middle" lineHeight="125%" anchor="middle" family="微软雅黑" size="17px" weight="700" font-style="" opacity="1" y="8.001850085989076" transform="rotate(0)"><tspan id="SvgjsTspan1248" dy="21" x="87"><tspan id="SvgjsTspan1249" style="text-decoration:;">数据读取</tspan></tspan></text></g></g><g id="SvgjsG1250" transform="translate(1171.3402646382651,507.7983831613551)"><path id="SvgjsPath1251" d="M 0 0L 173.784735361735 0L 173.784735361735 41.25370017197815L 0 41.25370017197815Z" stroke="none" fill="none"></path><g id="SvgjsG1252"><text id="SvgjsText1253" font-family="微软雅黑" text-anchor="middle" font-size="17px" width="174px" fill="#323232" font-weight="700" align="middle" lineHeight="125%" anchor="middle" family="微软雅黑" size="17px" weight="700" font-style="" opacity="1" y="8.001850085989076" transform="rotate(0)"><tspan id="SvgjsTspan1254" dy="21" x="87"><tspan id="SvgjsTspan1255" style="text-decoration:;">数据存入</tspan></tspan></text></g></g><g id="SvgjsG1256"><path id="SvgjsPath1257" d="M922.0085923853968 252.99690036284846L1043.4231464747272 426.743922373543" stroke="#323232" stroke-width="2" fill="none" marker-end="url(#SvgjsMarker1258)"></path></g><g id="SvgjsG1260" transform="matrix(0.573576436351046,0.8191520442889918,-0.8191520442889918,0.573576436351046,934.5280238997716,196.92756234650835)"><path id="SvgjsPath1261" d="M 0 0L 203.64345247517548 0L 203.64345247517548 42.1920148559553L 0 42.1920148559553Z" stroke="none" fill="none"></path><g id="SvgjsG1262"><text id="SvgjsText1263" font-family="微软雅黑" text-anchor="middle" font-size="15px" width="204px" fill="#323232" font-weight="700" align="middle" lineHeight="125%" anchor="middle" family="微软雅黑" size="15px" weight="700" font-style="" opacity="1" y="0.7210074279776499" transform="rotate(0)"><tspan id="SvgjsTspan1264" dy="18" x="102"><tspan id="SvgjsTspan1265" style="text-decoration:;">spring cloud openfeign服</tspan></tspan><tspan id="SvgjsTspan1266" dy="18" x="102"><tspan id="SvgjsTspan1267" style="text-decoration:;">务间调用</tspan></tspan></text></g></g><g id="SvgjsG1268" transform="translate(846.3194423516593,239.6215059605908)"><path id="SvgjsPath1269" d="M 7.698956990242084 0L 47.30106893848839 0C 52.424192024890544 0 52.424192024890544 24.151865978752994 47.30106893848839 24.151865978752994L 7.698956990242084 24.151865978752994C -2.5663189967473614 24.151865978752994 -2.5663189967473614 0 7.698956990242084 0ZM 47.30106893848839 0C 42.269430192914854 0 42.269430192914854 24.151865978752994 47.30106893848839 24.151865978752994C 42.269430192914854 24.151865978752994 42.269430192914854 0 47.30106893848839 0" stroke="rgba(50,50,50,1)" stroke-width="2" fill-opacity="1" fill="#ffffff"></path><g id="SvgjsG1270"><text id="SvgjsText1271" font-family="微软雅黑" text-anchor="middle" font-size="13px" width="42px" fill="#323232" font-weight="400" align="middle" lineHeight="125%" anchor="middle" family="微软雅黑" size="13px" weight="400" font-style="" opacity="1" y="2.450932989376497" transform="rotate(0)"><tspan id="SvgjsTspan1272" dy="16" x="21"><tspan id="SvgjsTspan1273" style="text-decoration:;">DB</tspan></tspan></text></g></g><g id="SvgjsG1274" transform="translate(846.3194423516593,300.0797146595903)"><path id="SvgjsPath1275" d="M 7.698956990242084 0L 47.30106893848839 0C 52.424192024890544 0 52.424192024890544 24.151865978752994 47.30106893848839 24.151865978752994L 7.698956990242084 24.151865978752994C -2.5663189967473614 24.151865978752994 -2.5663189967473614 0 7.698956990242084 0ZM 47.30106893848839 0C 42.269430192914854 0 42.269430192914854 24.151865978752994 47.30106893848839 24.151865978752994C 42.269430192914854 24.151865978752994 42.269430192914854 0 47.30106893848839 0" stroke="rgba(50,50,50,1)" stroke-width="2" fill-opacity="1" fill="#ffffff"></path><g id="SvgjsG1276"><text id="SvgjsText1277" font-family="微软雅黑" text-anchor="middle" font-size="13px" width="42px" fill="#323232" font-weight="400" align="middle" lineHeight="125%" anchor="middle" family="微软雅黑" size="13px" weight="400" font-style="" opacity="1" y="2.450932989376497" transform="rotate(0)"><tspan id="SvgjsTspan1278" dy="16" x="21"><tspan id="SvgjsTspan1279" style="text-decoration:;">DB</tspan></tspan></text></g></g><g id="SvgjsG1280" transform="translate(846.3194423516593,359.25225197537947)"><path id="SvgjsPath1281" d="M 7.698956990242084 0L 47.30106893848839 0C 52.424192024890544 0 52.424192024890544 24.151865978752994 47.30106893848839 24.151865978752994L 7.698956990242084 24.151865978752994C -2.5663189967473614 24.151865978752994 -2.5663189967473614 0 7.698956990242084 0ZM 47.30106893848839 0C 42.269430192914854 0 42.269430192914854 24.151865978752994 47.30106893848839 24.151865978752994C 42.269430192914854 24.151865978752994 42.269430192914854 0 47.30106893848839 0" stroke="rgba(50,50,50,1)" stroke-width="2" fill-opacity="1" fill="#ffffff"></path><g id="SvgjsG1282"><text id="SvgjsText1283" font-family="微软雅黑" text-anchor="middle" font-size="13px" width="42px" fill="#323232" font-weight="400" align="middle" lineHeight="125%" anchor="middle" family="微软雅黑" size="13px" weight="400" font-style="" opacity="1" y="2.450932989376497" transform="rotate(0)"><tspan id="SvgjsTspan1284" dy="16" x="21"><tspan id="SvgjsTspan1285" style="text-decoration:;">DB</tspan></tspan></text></g></g><g id="SvgjsG1286" transform="translate(846.3194423516594,418.4247892911687)"><path id="SvgjsPath1287" d="M 7.698956990242084 0L 47.30106893848839 0C 52.424192024890544 0 52.424192024890544 24.151865978752994 47.30106893848839 24.151865978752994L 7.698956990242084 24.151865978752994C -2.5663189967473614 24.151865978752994 -2.5663189967473614 0 7.698956990242084 0ZM 47.30106893848839 0C 42.269430192914854 0 42.269430192914854 24.151865978752994 47.30106893848839 24.151865978752994C 42.269430192914854 24.151865978752994 42.269430192914854 0 47.30106893848839 0" stroke="rgba(50,50,50,1)" stroke-width="2" fill-opacity="1" fill="#ffffff"></path><g id="SvgjsG1288"><text id="SvgjsText1289" font-family="微软雅黑" text-anchor="middle" font-size="13px" width="42px" fill="#323232" font-weight="400" align="middle" lineHeight="125%" anchor="middle" family="微软雅黑" size="13px" weight="400" font-style="" opacity="1" y="2.450932989376497" transform="rotate(0)"><tspan id="SvgjsTspan1290" dy="16" x="21"><tspan id="SvgjsTspan1291" style="text-decoration:;">DB</tspan></tspan></text></g></g><g id="SvgjsG1292" transform="translate(1195.191004673029,239.03214079719254)"><path id="SvgjsPath1293" d="M 7.698956990242084 0L 47.30106893848839 0C 52.424192024890544 0 52.424192024890544 24.151865978752994 47.30106893848839 24.151865978752994L 7.698956990242084 24.151865978752994C -2.5663189967473614 24.151865978752994 -2.5663189967473614 0 7.698956990242084 0ZM 47.30106893848839 0C 42.269430192914854 0 42.269430192914854 24.151865978752994 47.30106893848839 24.151865978752994C 42.269430192914854 24.151865978752994 42.269430192914854 0 47.30106893848839 0" stroke="rgba(50,50,50,1)" stroke-width="2" fill-opacity="1" fill="#ffffff"></path><g id="SvgjsG1294"><text id="SvgjsText1295" font-family="微软雅黑" text-anchor="middle" font-size="13px" width="42px" fill="#323232" font-weight="400" align="middle" lineHeight="125%" anchor="middle" family="微软雅黑" size="13px" weight="400" font-style="" opacity="1" y="2.450932989376497" transform="rotate(0)"><tspan id="SvgjsTspan1296" dy="16" x="21"><tspan id="SvgjsTspan1297" style="text-decoration:;">DB</tspan></tspan></text></g></g><g id="SvgjsG1298" transform="translate(1185.4374961853034,297.39877467815836)"><path id="SvgjsPath1299" d="M 7.698956990242084 0L 47.30106893848839 0C 52.424192024890544 0 52.424192024890544 24.151865978752994 47.30106893848839 24.151865978752994L 7.698956990242084 24.151865978752994C -2.5663189967473614 24.151865978752994 -2.5663189967473614 0 7.698956990242084 0ZM 47.30106893848839 0C 42.269430192914854 0 42.269430192914854 24.151865978752994 47.30106893848839 24.151865978752994C 42.269430192914854 24.151865978752994 42.269430192914854 0 47.30106893848839 0" stroke="rgba(50,50,50,1)" stroke-width="2" fill-opacity="1" fill="#ffffff"></path><g id="SvgjsG1300"><text id="SvgjsText1301" font-family="微软雅黑" text-anchor="middle" font-size="13px" width="42px" fill="#323232" font-weight="400" align="middle" lineHeight="125%" anchor="middle" family="微软雅黑" size="13px" weight="400" font-style="" opacity="1" y="2.450932989376497" transform="rotate(0)"><tspan id="SvgjsTspan1302" dy="16" x="21"><tspan id="SvgjsTspan1303" style="text-decoration:;">DB</tspan></tspan></text></g></g><g id="SvgjsG1304" transform="translate(1185.4374961853034,357.37721542877097)"><path id="SvgjsPath1305" d="M 7.698956990242084 0L 47.30106893848839 0C 52.424192024890544 0 52.424192024890544 24.151865978752994 47.30106893848839 24.151865978752994L 7.698956990242084 24.151865978752994C -2.5663189967473614 24.151865978752994 -2.5663189967473614 0 7.698956990242084 0ZM 47.30106893848839 0C 42.269430192914854 0 42.269430192914854 24.151865978752994 47.30106893848839 24.151865978752994C 42.269430192914854 24.151865978752994 42.269430192914854 0 47.30106893848839 0" stroke="rgba(50,50,50,1)" stroke-width="2" fill-opacity="1" fill="#ffffff"></path><g id="SvgjsG1306"><text id="SvgjsText1307" font-family="微软雅黑" text-anchor="middle" font-size="13px" width="42px" fill="#323232" font-weight="400" align="middle" lineHeight="125%" anchor="middle" family="微软雅黑" size="13px" weight="400" font-style="" opacity="1" y="2.450932989376497" transform="rotate(0)"><tspan id="SvgjsTspan1308" dy="16" x="21"><tspan id="SvgjsTspan1309" style="text-decoration:;">DB</tspan></tspan></text></g></g><g id="SvgjsG1310" transform="translate(1185.4374961853034,416.5497527445601)"><path id="SvgjsPath1311" d="M 7.698956990242084 0L 47.30106893848839 0C 52.424192024890544 0 52.424192024890544 24.151865978752994 47.30106893848839 24.151865978752994L 7.698956990242084 24.151865978752994C -2.5663189967473614 24.151865978752994 -2.5663189967473614 0 7.698956990242084 0ZM 47.30106893848839 0C 42.269430192914854 0 42.269430192914854 24.151865978752994 47.30106893848839 24.151865978752994C 42.269430192914854 24.151865978752994 42.269430192914854 0 47.30106893848839 0" stroke="rgba(50,50,50,1)" stroke-width="2" fill-opacity="1" fill="#ffffff"></path><g id="SvgjsG1312"><text id="SvgjsText1313" font-family="微软雅黑" text-anchor="middle" font-size="13px" width="42px" fill="#323232" font-weight="400" align="middle" lineHeight="125%" anchor="middle" family="微软雅黑" size="13px" weight="400" font-style="" opacity="1" y="2.450932989376497" transform="rotate(0)"><tspan id="SvgjsTspan1314" dy="16" x="21"><tspan id="SvgjsTspan1315" style="text-decoration:;">DB</tspan></tspan></text></g></g><g id="SvgjsG1316" transform="translate(1401.441004673029,240.9071773438012)"><path id="SvgjsPath1317" d="M 7.698956990242084 0L 47.30106893848839 0C 52.424192024890544 0 52.424192024890544 24.151865978752994 47.30106893848839 24.151865978752994L 7.698956990242084 24.151865978752994C -2.5663189967473614 24.151865978752994 -2.5663189967473614 0 7.698956990242084 0ZM 47.30106893848839 0C 42.269430192914854 0 42.269430192914854 24.151865978752994 47.30106893848839 24.151865978752994C 42.269430192914854 24.151865978752994 42.269430192914854 0 47.30106893848839 0" stroke="rgba(50,50,50,1)" stroke-width="2" fill-opacity="1" fill="#ffffff"></path><g id="SvgjsG1318"><text id="SvgjsText1319" font-family="微软雅黑" text-anchor="middle" font-size="13px" width="42px" fill="#323232" font-weight="400" align="middle" lineHeight="125%" anchor="middle" family="微软雅黑" size="13px" weight="400" font-style="" opacity="1" y="2.450932989376497" transform="rotate(0)"><tspan id="SvgjsTspan1320" dy="16" x="21"><tspan id="SvgjsTspan1321" style="text-decoration:;">DB</tspan></tspan></text></g></g><g id="SvgjsG1322" transform="translate(1401.441004673029,298.2046781129817)"><path id="SvgjsPath1323" d="M 7.698956990242084 0L 47.30106893848839 0C 52.424192024890544 0 52.424192024890544 24.151865978752994 47.30106893848839 24.151865978752994L 7.698956990242084 24.151865978752994C -2.5663189967473614 24.151865978752994 -2.5663189967473614 0 7.698956990242084 0ZM 47.30106893848839 0C 42.269430192914854 0 42.269430192914854 24.151865978752994 47.30106893848839 24.151865978752994C 42.269430192914854 24.151865978752994 42.269430192914854 0 47.30106893848839 0" stroke="rgba(50,50,50,1)" stroke-width="2" fill-opacity="1" fill="#ffffff"></path><g id="SvgjsG1324"><text id="SvgjsText1325" font-family="微软雅黑" text-anchor="middle" font-size="13px" width="42px" fill="#323232" font-weight="400" align="middle" lineHeight="125%" anchor="middle" family="微软雅黑" size="13px" weight="400" font-style="" opacity="1" y="2.450932989376497" transform="rotate(0)"><tspan id="SvgjsTspan1326" dy="16" x="21"><tspan id="SvgjsTspan1327" style="text-decoration:;">DB</tspan></tspan></text></g></g><g id="SvgjsG1328" transform="translate(1401.441004673029,359.2522519753794)"><path id="SvgjsPath1329" d="M 7.698956990242084 0L 47.30106893848839 0C 52.424192024890544 0 52.424192024890544 24.151865978752994 47.30106893848839 24.151865978752994L 7.698956990242084 24.151865978752994C -2.5663189967473614 24.151865978752994 -2.5663189967473614 0 7.698956990242084 0ZM 47.30106893848839 0C 42.269430192914854 0 42.269430192914854 24.151865978752994 47.30106893848839 24.151865978752994C 42.269430192914854 24.151865978752994 42.269430192914854 0 47.30106893848839 0" stroke="rgba(50,50,50,1)" stroke-width="2" fill-opacity="1" fill="#ffffff"></path><g id="SvgjsG1330"><text id="SvgjsText1331" font-family="微软雅黑" text-anchor="middle" font-size="13px" width="42px" fill="#323232" font-weight="400" align="middle" lineHeight="125%" anchor="middle" family="微软雅黑" size="13px" weight="400" font-style="" opacity="1" y="2.450932989376497" transform="rotate(0)"><tspan id="SvgjsTspan1332" dy="16" x="21"><tspan id="SvgjsTspan1333" style="text-decoration:;">DB</tspan></tspan></text></g></g><g id="SvgjsG1334" transform="translate(1401.441004673029,418.4247892911687)"><path id="SvgjsPath1335" d="M 7.698956990242084 0L 47.30106893848839 0C 52.424192024890544 0 52.424192024890544 24.151865978752994 47.30106893848839 24.151865978752994L 7.698956990242084 24.151865978752994C -2.5663189967473614 24.151865978752994 -2.5663189967473614 0 7.698956990242084 0ZM 47.30106893848839 0C 42.269430192914854 0 42.269430192914854 24.151865978752994 47.30106893848839 24.151865978752994C 42.269430192914854 24.151865978752994 42.269430192914854 0 47.30106893848839 0" stroke="rgba(50,50,50,1)" stroke-width="2" fill-opacity="1" fill="#ffffff"></path><g id="SvgjsG1336"><text id="SvgjsText1337" font-family="微软雅黑" text-anchor="middle" font-size="13px" width="42px" fill="#323232" font-weight="400" align="middle" lineHeight="125%" anchor="middle" family="微软雅黑" size="13px" weight="400" font-style="" opacity="1" y="2.450932989376497" transform="rotate(0)"><tspan id="SvgjsTspan1338" dy="16" x="21"><tspan id="SvgjsTspan1339" style="text-decoration:;">DB</tspan></tspan></text></g></g><g id="SvgjsG1340" transform="matrix(0.8191520442889916,-0.5735764363510465,0.5735764363510465,0.8191520442889916,570.6401899043177,204.69775951153974)"><path id="SvgjsPath1341" d="M 0 0L 173.784735361735 0L 173.784735361735 41.25370017197815L 0 41.25370017197815Z" stroke="none" fill="none"></path><g id="SvgjsG1342"><text id="SvgjsText1343" font-family="微软雅黑" text-anchor="middle" font-size="17px" width="174px" fill="#323232" font-weight="700" align="middle" lineHeight="125%" anchor="middle" family="微软雅黑" size="17px" weight="700" font-style="" opacity="1" y="8.001850085989076" transform="rotate(0)"><tspan id="SvgjsTspan1344" dy="21" x="87"><tspan id="SvgjsTspan1345" style="text-decoration:;">服务注册 / 服务发现</tspan></tspan></text></g></g><g id="SvgjsG1346" transform="translate(70.93053181966138,282.30930624065815)"><path id="SvgjsPath1347" d="M 0 0L 58.777842203775975 0L 58.777842203775975 55.275943056733695L 0 55.275943056733695Z" stroke="none" fill="url(#SvgjsPattern1348)"></path></g><g id="SvgjsG1350"><path id="SvgjsPath1351" d="M160.93053181966138 353.46875L204.986094156901 353.46875L204.986094156901 351.96875L246.4416564941406 351.96875" stroke="#323232" stroke-width="2" fill="none" marker-end="url(#SvgjsMarker1352)"></path></g></svg>